<?xml version="1.0" encoding="UTF-8" standalone="no"?>
<svg
   version="1.1"
   viewBox="0 0 1600 1600"
   width="1280"
   height="1280"
   id="svg47"
   sodipodi:docname="´barbeiro.svg"
   inkscape:version="1.3.2 (091e20e, 2023-11-25, custom)"
   xmlns:inkscape="http://www.inkscape.org/namespaces/inkscape"
   xmlns:sodipodi="http://sodipodi.sourceforge.net/DTD/sodipodi-0.dtd"
   xmlns="http://www.w3.org/2000/svg"
   xmlns:svg="http://www.w3.org/2000/svg">
  <defs
     id="defs47" />
  <sodipodi:namedview
     id="namedview47"
     pagecolor="#ffffff"
     bordercolor="#000000"
     borderopacity="0.25"
     inkscape:showpageshadow="2"
     inkscape:pageopacity="0.0"
     inkscape:pagecheckerboard="0"
     inkscape:deskcolor="#d1d1d1"
     showgrid="false"
     inkscape:zoom="0.39765625"
     inkscape:cx="515.52063"
     inkscape:cy="486.60118"
     inkscape:window-width="1366"
     inkscape:window-height="705"
     inkscape:window-x="-8"
     inkscape:window-y="71"
     inkscape:window-maximized="1"
     inkscape:current-layer="svg47" />
  <path
     d="m 580.18938,832.05263 c 1.34646,30.5372 -9.94371,107.17554 -15.34707,184.89387 -36.3966,14.1829 -51.6907,14.9249 -74.8089,23.7618 -8.0578,4.2245 -7.2803,19.7587 -7.7969,27.5538 3.9972,-3.6533 6.4769,-6.0495 13.2044,-9.9822 4.5604,0.9835 8.4068,-1.4684 13.8288,1.6629 4.4571,-6.8203 12.1687,-7.0393 20.3267,-8.4749 l 8.3184,7.7977 c 2.8133,-5.2462 11.1186,-8.9232 18.195,-12.9978 10.5121,-3.1581 4.5324,-1.339 21.2633,8.9929 30.2668,-76.01167 22.0397,-134.64547 42.5547,-195.85996 136.7368,-19.42778 131.2238,-10.78765 170.792,-14.80378 18.78912,-19.03904 16.50292,-48.2102 14.11542,-73.07199 -78.94842,2.63578 -184.45345,37.09312 -224.64585,60.52766 z"
     fill="#131112"
     id="path5-5"
     sodipodi:nodetypes="cccccccccccccc" />
  <path
     d="m 1207.2409,508.58616 c -73.409,59.88056 -184.5582,115.2799 -217.15067,136.51789 l -18.14728,-58.00518 c 97.91995,-42.28945 36.38525,-8.47196 197.08755,-86.57261 -24.4503,-25.4684 -54.6142,-26.33145 -69.8692,-42.21721 3.1588,-5.47301 6.9746,-9.19426 5.4594,-15.33605 l -5.0944,-7.48645 c 3.3143,-1.34733 6.73,-1.65217 10.2416,-2.02703 2.0942,-18.84528 -13.1366,-27.13099 -12.0594,-37.74351 7.6071,-3.73599 3.2069,-0.0291 17.78,-4.88598 5.8938,-4.18221 -0.5947,-11.14045 3.588,-18.8713 l 4.0031,-0.98757 c 4.9437,4.72843 19.8823,20.05707 21.3652,33.94887 -12.0137,31.17924 -16.0167,28.7054 -14.6106,45.07249 23.6731,11.62236 45.6927,25.33357 66.2821,41.85312 6.0949,4.35305 10.3444,9.43195 11.1246,16.74052 z"
     fill="#141213"
     id="path10"
     sodipodi:nodetypes="cccccccccccccccc" />
  <path
     d="m 844.70534,519.16546 c -41.09483,-14.80147 -24.26334,-64.41201 8.40534,-62.46892 43.08195,8.8759 46.07586,61.732 -8.40534,62.46892 z"
     fill="#131112"
     id="path28"
     sodipodi:nodetypes="ccc"
     style="stroke-width:1.15209" />
  <path
     d="m 1197.2,1367.4584 c 22.6092,15.0107 46.96,28.5734 56.9898,35.8038 0.1352,0.1822 2.0124,12.4979 -2.6513,23.6891 l -10.2946,-12.2959 -11.6395,4.8186 -10.7914,-13.2306 -10.8766,4.8802 c -1.7259,0.029 2.3842,-5.7961 -14.7682,-23.1933 -9.0669,2.2404 -17.4812,9.569 -24.6798,8.8383 0.653,-112.7825 36.2306,-194.3262 36.7788,-221.4037 -30.8758,-20.2314 -76.8837,-26.5352 -114.5691,-35.4378 -6.2504,-25.4578 2.4136,-52.1756 2.3335,-78.2643 115.2214,51.5109 141.8434,89.1395 159.622,99.4455 4.3657,21.1462 -52.9039,125.6289 -55.4536,206.3501 z"
     fill="#141212"
     id="path8"
     sodipodi:nodetypes="cccccccccccccc" />
  <path
     d="m 1212.3292,838.03089 c 6.4331,-3.91515 15.6122,112.66496 14.2357,189.33931 36.3966,14.1829 51.6907,14.9249 74.8089,23.7618 8.0578,4.2245 7.2803,19.7587 7.7969,27.5538 -3.9972,-3.6533 -6.4769,-6.0495 -13.2044,-9.9822 -4.5604,0.9835 -8.4068,-1.4684 -13.8288,1.6629 -4.4571,-6.8203 -12.1687,-7.0393 -20.3267,-8.4749 l -8.3184,7.7977 c -2.8133,-5.2462 -11.1186,-8.9232 -18.195,-12.9978 -10.5121,-3.1581 -4.5324,-1.339 -21.2633,8.9929 -30.2668,-76.01164 -22.0397,-134.64544 -42.5547,-195.85993 -136.7368,-19.42778 -131.2238,-10.78765 -170.792,-14.80378 -18.78912,-19.03904 -16.50292,-48.2102 -14.11542,-73.07199 78.94842,2.63578 185.56482,32.64765 225.75722,56.08219 z"
     fill="#131112"
     id="path5"
     sodipodi:nodetypes="cccccccccccccc" />
  <path
     d="m 596.9278,507.91707 c 73.40905,59.88056 184.55825,115.2799 217.15072,136.51789 l 18.14728,-58.00518 c -97.91995,-42.28945 -36.38525,-8.47196 -197.08755,-86.57261 24.4503,-25.4684 54.6142,-26.33145 69.8692,-42.21721 -3.1588,-5.47301 -6.9746,-9.19426 -5.4594,-15.33605 l 5.0944,-7.48645 c -3.3143,-1.34733 -6.73,-1.65217 -10.2416,-2.02703 -2.0942,-18.84528 13.1366,-27.13099 12.0594,-37.74351 -7.6071,-3.73599 -3.2069,-0.0291 -17.78,-4.88598 -5.8938,-4.18221 0.5947,-11.14045 -3.588,-18.8713 l -4.0031,-0.98757 c -4.9437,4.72843 -19.8823,20.05707 -21.3652,33.94887 12.0137,31.17924 16.0167,28.7054 14.6106,45.07249 -23.6731,11.62236 -45.69265,25.33357 -66.28205,41.85312 -6.0949,4.35305 -10.3444,9.43195 -11.1247,16.74052 z"
     fill="#141213"
     id="path10-4"
     sodipodi:nodetypes="cccccccccccccccc" />
  <path
     d="m 947.51887,519.00379 c 34.80796,-12.44391 28.58551,-66.37665 -8.4054,-62.46892 -43.08186,8.8759 -46.07576,61.732 8.4054,62.46892 z"
     fill="#131112"
     id="path28-5"
     sodipodi:nodetypes="ccc"
     style="stroke-width:1.15209" />
  <path
     d="m 940.32843,373.34369 c 1.53935,20.74522 -1.45317,63.75539 5.1699,85.32789 -6.26127,38.66073 1.30301,62.28584 1.30301,62.28584 l -3.80247,20.40807 c 9.35187,17.6667 31.17787,42.42692 32.77534,44.2366 12.99402,29.73792 22.90166,60.64937 33.47429,91.29186 5.9359,31.11178 -0.8246,29.26095 -2.9405,105.90463 -7.60238,179.74586 98.261,91.15797 89.8693,364.28092 -150.61067,305.8037 -168.60355,264.8041 -243.04474,256.1863 -168.79678,-98.3275 -103.64722,-526.38207 -103.64722,-526.38207 18.70676,-25.76967 44.5333,-65.881 31.24925,-99.13872 -2.69389,-20.74705 -3.12674,-41.30801 -2.33647,-62.1252 -3.78274,-20.39933 -0.42022,-39.59384 3.538,-59.57753 21.65319,-47.43274 6.34159,0.64867 59.21896,-108.28719 l 1.68691,-27.97635 c -1.10015,-2.2559 12.57684,-20.83194 9.79921,-61.74603 3.69474,-16.78809 11.04871,-68.32808 10.48259,-85.53388 17.71744,-50.43251 9.75923,-86.41918 9.75923,-86.41918 -7.26817,-10.40548 23.13736,-9.30991 36.96527,-9.64453 19.98121,-0.48353 33.6647,2.47887 28.38491,8.84386 -1.09764,1.32324 -9.35989,36.91501 2.09523,88.06471 z"
     fill="#63504d"
     id="path1"
     sodipodi:nodetypes="ccccccccccccccccccssc" />
  <path
     d="m 940.2816,372.71452 c 1.5394,20.74522 -1.4531,63.75539 5.1699,85.32789 -6.2612,38.66073 1.303,62.28584 1.303,62.28584 l -3.8024,20.40807 c 9.3518,17.6667 31.1778,42.42692 32.7753,44.2366 12.994,29.73792 22.90173,60.64937 33.4743,91.29186 0.891,4.45468 3.7481,18.89485 1.4262,35.20973 -7.1841,12.14726 -92.68678,122.66104 -115.55224,145.61865 -27.63063,0.89482 -94.81102,-146.13157 -118.17204,-165.72904 -2.41524,-6.86473 5.20396,-31.14144 4.98528,-35.95101 21.6532,-47.43274 6.3416,0.64867 59.219,-108.28719 l 1.6869,-27.97635 c -1.1002,-2.2559 12.5768,-20.83194 9.7992,-61.74603 3.6947,-16.78809 11.0487,-68.32808 10.4826,-85.53388 17.7174,-50.43251 9.7592,-86.41918 9.7592,-86.41918 -7.2681,-10.40548 23.1374,-9.30991 36.9653,-9.64453 19.9812,-0.48353 33.6647,2.47887 28.3849,8.84386 -1.0976,1.32324 -9.3599,36.91501 2.0952,88.06471 z"
     style="fill:#473737;fill-opacity:1"
     id="path1-9"
     sodipodi:nodetypes="cccccccccccccccsscc" />
  <path
     d="m 1056.1002,1300.1806 c -9.5859,27.3497 -45.0501,82.9066 -72.68538,97.5354 -11.78522,-7.121 -23.91015,-16.0279 -24.49913,-17.1405 23.77505,-22.328 35.77348,-56.9922 50.79911,-84.7639 14.1742,-0.2117 32.3023,6.7158 46.3854,4.369 z"
     fill="#a48a77"
     id="path22"
     sodipodi:nodetypes="ccccc" />
  <path
     d="m 1075.7123,1244.78 c -9.268,48.1222 -21.0632,57.4355 -21.0632,57.4355 -10.8236,-1.9583 -40.4012,-2.6707 -44.5318,-6.8326 14.4987,-38.3799 18.4481,-51.9292 20.1882,-76.0959 z"
     fill="#322f30"
     id="path23"
     sodipodi:nodetypes="ccccc" />
  <path
     d="m 1097.1656,1131.8472 c -0.372,42.2207 -16.9108,102.3001 -22.1176,114.996 -13.6229,-3.0754 -36.1655,-16.8083 -44.9159,-26.5503 5.0916,-28.9145 11.9046,-59.3694 12.2723,-88.7864 18.4165,0.3152 35.3182,0.9833 54.7612,0.3407 z"
     fill="#a48a77"
     id="path17"
     sodipodi:nodetypes="ccccc" />
  <path
     d="m 1094.3622,1049.6028 c 6.2517,9.7963 2.7459,58.3747 4.6229,83.5441 -25.6293,0.9972 -34.899,0.6522 -56.8015,3.868 0.5705,-4.3564 2.5267,-83.3749 2.5267,-83.3749 18.0921,5.0669 30.9124,-2.7493 49.6519,-4.0372 z"
     fill="#312f30"
     id="path19"
     sodipodi:nodetypes="ccccc" />
  <path
     d="m 1094.9179,1051.2698 c -27.9782,5.5095 -41.3039,2.9666 -50.3209,4.4692 0.5124,-34.4448 -9.4662,-87.46855 -12.2813,-98.07525 6.2292,-4.17801 21.7187,2.28994 38.7949,-1.62932 6.1308,9.85266 22.8465,53.83277 23.8073,95.23537 z"
     fill="#a48a77"
     id="path18"
     sodipodi:nodetypes="ccccc" />
  <path
     d="m 1031.3623,880.55048 c 20.0134,32.84988 33.0103,58.91487 40.7536,77.86511 -13.9879,1.36635 -30.0605,-1.26551 -40.0994,-0.84972 -5.3237,-15.3013 -10.2454,-55.7651 -15.4002,-76.26705 11.0624,-2.05616 3.9405,0.50704 14.746,-0.74834 z"
     fill="#312f30"
     id="path26"
     sodipodi:nodetypes="ccccc" />
  <path
     d="m 604.43336,1377.5049 c -22.6092,15.0107 -46.96,28.5734 -56.9898,35.8038 -0.1352,0.1822 -2.0124,12.4979 2.6513,23.6891 l 10.2946,-12.2959 11.6395,4.8186 10.7914,-13.2306 10.8766,4.8802 c 1.7259,0.029 -2.3842,-5.7961 14.7682,-23.1933 9.0669,2.2404 17.4812,9.569 24.6798,8.8383 -0.653,-112.7825 -36.2306,-194.3262 -36.7788,-221.4037 30.8758,-20.2314 76.8837,-26.5352 114.5691,-35.4378 6.2504,-25.4578 -2.4136,-52.1756 -2.3335,-78.2643 -115.2214,51.5109 -141.8434,89.1395 -159.622,99.4455 -4.3657,21.1462 52.9039,125.6289 55.4536,206.3501 z"
     fill="#141212"
     id="path8-5"
     sodipodi:nodetypes="cccccccccccccc" />
  <path
     d="m 397.4781,400.55955 c 4.936,-10.19351 23.1525,-71.00826 52.99656,-114.00429 59.0734,-20.77709 132.5247,-38.43247 200.4803,-40.96797 46.7245,22.5975 183.30104,101.30341 181.79434,108.82217 17.8863,14.58501 18.9088,39.06042 31.7412,53.16947 4.3994,-7.569 3.7502,-16.00999 4.7236,-25.86855 -7.1807,-16.57202 -8.4843,-34.96904 -8.4843,-34.96904 0,0 -188.20654,-112.25815 -206.42134,-118.95949 -58.2669,0.93551 -204.1893,41.81411 -213.70786,47.77513 -13.5875,27.58614 -48.2226,107.52643 -54.6715,122.95966 2.391,7.06381 2.8029,8.5725 11.549,2.04291 z"
     fill="#151213"
     id="path12-5"
     sodipodi:nodetypes="ccccccccccc" />
  <path
     d="m 999.33038,1021.8369 c 6.22832,113.3098 -17.44747,212.5497 -94.31841,272.826 -9.52188,13.7031 -16.42531,21.3832 -12.71473,62.7383 3.71059,11.626 -22.29073,17.5755 -22.01603,2.0365 -1.11451,-46.9351 3.51625,-49.1663 12.63642,-72.314 -28.76769,-42.7831 -51.04824,-74.8703 -47.79932,-133.3807 4.75815,-43.4746 9.62146,-70.0179 81.6132,-230.29987 5.03192,-5.17697 17.39684,-3.65599 19.40376,3.32134 -76.39389,188.98603 -79.34661,206.71593 -75.55537,266.86233 44.96446,-114.1234 47.9898,-164.6627 93.1651,-236.04228 6.81699,-2.27196 12.16573,-4.98078 15.4134,5.92408 -38.81814,67.148 -56.33285,173.4721 -94.59243,254.5918 -0.18426,20.3956 12.45172,36.9712 27.05929,51.8326 57.49243,-60.5325 80.82087,-124.686 76.2359,-251.5444 1.7837,-10.9486 23.49244,-12.0226 21.46922,3.4483 z"
     fill="#4b3e3d"
     id="path4"
     sodipodi:nodetypes="ccccczccccccccc" />
  <path
     d="m 817.636,979.97825 -7.21432,30.37825 c -19.02134,-24.88759 -33.86876,-46.70458 -38.8967,-70.46284 1.67752,-9.84153 9.33899,-11.65565 18.04188,-8.85151 2.8923,7.78184 6.60433,21.90722 28.06914,48.9361 z"
     fill="#4c3f3e"
     id="path33"
     sodipodi:nodetypes="ccccc" />
  <path
     d="m 814.77392,846.58484 c 9.64386,28.47864 16.98333,46.28917 39.3509,76.47552 -2.06039,8.81585 -10.10424,14.51649 -16.06515,20.95021 -23.47491,-35.48857 -38.10902,-54.57201 -40.91008,-85.83336 2.75926,-11.03604 6.9308,-15.0208 17.62433,-11.59237 z"
     fill="#4c3f3e"
     id="path30"
     sodipodi:nodetypes="ccccc" />
  <path
     d="m 995.66021,755.94509 c -63.19792,79.29268 -151.93795,169.72122 -205.84659,413.00651 -6.69693,4.2802 -20.03945,7.6103 -18.39686,-11.7631 48.05337,-199.67137 38.25269,-163.08179 106.52261,-288.15578 -40.30508,-36.83499 -73.97149,-106.68438 -81.03636,-131.33409 -2.14603,-7.06681 5.05853,-12.69922 11.46605,-5.27678 13.881,20.09923 46.99898,83.96531 85.63185,117.02108 49.90703,-53.34008 82.60129,-91.34061 91.72512,-103.9646 11.23041,-18.49407 15.83967,-9.99551 9.93418,10.46676 z"
     fill="#856756"
     id="path9"
     sodipodi:nodetypes="ccccccccc" />
  <path
     d="m 1404.0434,401.62077 c -4.936,-10.19351 -23.1525,-71.00826 -52.9966,-114.00429 -59.0734,-20.77709 -132.5247,-38.43247 -200.4803,-40.96797 -46.7245,22.5975 -183.30098,101.30341 -181.79429,108.82217 -17.88629,14.58501 -18.90885,39.06042 -31.74122,53.16947 -4.3994,-7.569 -3.75023,-16.00999 -4.7236,-25.86855 7.18075,-16.57202 8.48435,-34.96904 8.48435,-34.96904 0,0 188.20646,-112.25815 206.42126,-118.95949 58.2669,0.93551 204.1893,41.81411 213.7079,47.77513 13.5875,27.58614 48.2226,107.52643 54.6715,122.95966 -2.391,7.06381 -2.8029,8.5725 -11.549,2.04291 z"
     fill="#151213"
     id="path12"
     sodipodi:nodetypes="ccccccccccc" />
  <path
     d="m 997.19275,830.83629 c 0.54049,26.8116 0.68078,30.60802 -25.61814,74.44324 -11.79404,-8.42516 -14.59077,-10.46389 -17.83093,-16.58487 30.66272,-35.67639 19.24978,-50.02802 29.2476,-64.02352 12.26867,-4.4084 12.91268,1.28489 14.20147,6.16515 z"
     fill="#4c3f3e"
     id="path31"
     sodipodi:nodetypes="ccccc" />
  <path
     d="m 997.78893,714.20439 c -6.99929,7.1031 -5.34164,6.90719 -19.21879,15.17918 -10.43653,21.23386 -34.01863,56.31906 -49.53229,65.29493 -15.51366,8.97588 -16.88618,-5.96824 -9.7855,-10.02586 18.72524,-10.70036 26.88868,-39.59629 37.97029,-51.72414 -13.67631,3.80631 -76.14295,3.51921 -83.64199,3.5869 -0.61462,23.89061 3.89304,34.77156 29.87193,92.09517 -4.51239,9.73353 -9.15268,6.93254 -14.28227,1.48567 -32.08023,-47.95663 -37.80982,-96.60118 -37.80982,-96.60118 -15.0628,-9.49088 -21.80475,-16.3511 -36.18306,-25.69833 -14.37831,-9.34723 2.42788,-25.01258 16.82054,-9.68892 14.39267,15.32367 101.49351,27.59039 150.49171,1.1995 18.43562,-3.33004 22.11602,4.37272 15.29925,14.89708 z"
     fill="#131112"
     id="path13"
     sodipodi:nodetypes="cczsccccczzcc" />
  <path
     d="m 986.24432,1396.2382 c -62.49732,58.455 -117.55089,57.7711 -185.17809,-15.3125 -3.02424,-6.2517 19.82238,-24.092 27.74228,-15.5987 65.59245,42.1297 65.52078,42.7809 132.51401,12.7204 7.55113,8.576 15.04471,12.6767 24.9218,18.1908 z"
     fill="#312f30"
     id="path15"
     sodipodi:nodetypes="ccccc" />
  <path
     d="m 1009.6775,966.07851 c 4.9188,9.98063 -8.5986,18.93374 -14.1849,7.84123 -13.50967,-35.85207 -41.80325,-61.91111 -58.89121,-79.49611 -4.90721,-10.31584 5.0199,-15.53209 9.81241,-13.16354 16.77679,6.88721 54.0602,61.57957 63.2637,84.81842 z"
     fill="#866857"
     id="path27"
     sodipodi:nodetypes="ccccc" />
  <path
     d="m 952.47392,633.38056 c -23.82334,11.85909 -98.67343,10.9538 -117.29502,-3.29814 -18.62158,-14.25194 -14.07404,-31.55636 6.6371,-16.42159 20.71114,15.13478 85.86713,16.36224 104.93199,1.46251 19.06487,-14.89973 29.54927,6.39813 5.72593,18.25722 z"
     fill="#131112"
     id="path29"
     sodipodi:nodetypes="zzzzz" />
  <path
     d="m 923.97736,544.16461 c 9.42067,-1.28999 13.06586,9.29393 5.50403,12.27662 -7.56183,2.98269 -41.67635,8.62112 -61.59753,0.90587 -9.27697,-3.95525 -7.5242,-16.83533 3.60012,-13.07099 29.12789,10.42216 43.07271,1.1785 52.49338,-0.1115 z"
     fill="#131112"
     id="path34"
     sodipodi:nodetypes="zzccz" />
  <path
     d="m 918.20582,436.8174 3.32679,8.42214 -3.37959,8.57778 c -0.26096,0.0516 -21.98153,4.33281 -33.53199,0.77821 l -4.67846,-8.83811 c -0.0853,-3.27763 -1.65799,-6.63266 -0.67537,-9.82567 2.01054,-1.28402 22.46332,-13.71582 38.93862,0.88565 z"
     fill="#131112"
     id="path35"
     sodipodi:nodetypes="ccccccc" />
  <path
     d="m 1031.8485,881.4738 c -7.503,0.27797 2.0034,0.96282 -14.9133,2.03785 -5.0382,-13.52919 -4.8498,-25.31631 -5.5611,-27.37299 6.8599,4.54206 15.9367,15.70632 20.4744,25.33514 z"
     fill="#a28876"
     id="path38"
     sodipodi:nodetypes="cccc" />
  <path
     d="M 1126.7758,518.75971"
     fill="#846b5f"
     id="path42" />
  <path
     d="M 542.09378,1154.1233"
     fill="#a58b78"
     id="path43" />
  <path
     d="M 1136.4978,513.61341"
     fill="#866857"
     id="path47" />
  <path
     d="m 730.15136,1285.8118 c 11.39187,27.2107 49.99775,84.24 75.47198,101.4228 11.78522,-7.121 23.34628,-20.3321 23.93526,-21.4447 -23.77505,-22.328 -37.85729,-53.3803 -52.88292,-81.152 -14.1742,-0.2117 -32.44122,3.5207 -46.52432,1.1739 z"
     fill="#a48a77"
     id="path22-7"
     sodipodi:nodetypes="ccccc" />
  <path
     d="m 712.76199,1234.1951 c 9.268,49.8701 21.0632,59.5216 21.0632,59.5216 10.8236,-2.0294 40.4012,-2.7677 44.5318,-7.0807 -14.4987,-39.7739 -18.4481,-53.8154 -20.1882,-78.8598 z"
     fill="#322f30"
     id="path23-8"
     sodipodi:nodetypes="ccccc"
     style="stroke-width:1.018" />
  <path
     d="m 691.30869,1117.1606 c 0.372,43.7542 16.9108,106.0156 22.1176,119.1727 13.6229,-3.1871 36.1655,-17.4188 44.9159,-27.5147 -5.0916,-29.9646 -11.9046,-61.5256 -12.2723,-92.0111 -18.4165,0.3267 -35.3182,1.019 -54.7612,0.3531 z"
     fill="#a48a77"
     id="path17-8"
     sodipodi:nodetypes="ccccc"
     style="stroke-width:1.018" />
  <path
     d="m 694.11209,1031.9289 c -6.2517,10.1522 -2.7459,60.495 -4.6229,86.5786 25.6293,1.0334 34.899,0.6759 56.8015,4.0085 -0.5705,-4.5147 -2.5267,-86.4032 -2.5267,-86.4032 -18.0921,5.2509 -30.9124,-2.8492 -49.6519,-4.1839 z"
     fill="#312f30"
     id="path19-3"
     sodipodi:nodetypes="ccccc"
     style="stroke-width:1.018" />
  <path
     d="m 693.55639,1033.6565 c 27.9782,5.7096 41.3039,3.0743 50.3209,4.6315 -0.5124,-35.6959 9.4662,-90.64548 12.2813,-101.63743 -6.2292,-4.32976 -21.7187,2.37311 -38.7949,-1.6885 -6.1308,10.21052 -22.8465,55.78804 -23.8073,98.69443 z"
     fill="#a48a77"
     id="path18-9"
     sodipodi:nodetypes="ccccc"
     style="stroke-width:1.018" />
  <path
     d="m 757.11199,865.76496 c -20.0134,32.84988 -33.0103,58.91487 -40.7536,77.86511 13.9879,1.36635 30.0605,-1.26551 40.0994,-0.84972 5.3237,-15.3013 10.2454,-55.7651 15.4002,-76.26705 -11.0624,-2.05616 -3.9405,0.50704 -14.746,-0.74834 z"
     fill="#312f30"
     id="path26-9"
     sodipodi:nodetypes="ccccc" />
  <path
     d="m 756.62579,866.68828 c 7.503,0.27797 -2.0034,0.96282 14.9133,2.03785 5.0382,-13.52919 4.8498,-25.31631 5.5611,-27.37299 -6.8599,4.54206 -15.9367,15.70632 -20.4744,25.33514 z"
     fill="#a28876"
     id="path38-5"
     sodipodi:nodetypes="cccc" />
</svg>
